<svg width="24" height="24" viewBox="0 0 24 24" fill="none" xmlns="http://www.w3.org/2000/svg">
<path d="M12 16C13.6569 16 15 14.6569 15 13C15 11.3431 13.6569 10 12 10C10.3431 10 9 11.3431 9 13C9 14.6569 10.3431 16 12 16Z" stroke="#929BAA" stroke-width="1.5" stroke-linecap="round" stroke-linejoin="round"/>
<path d="M20 17.4444C20 17.857 19.8468 18.2527 19.574 18.5444C19.3012 18.8361 18.9312 19 18.5455 19H5.45455C5.06878 19 4.69881 18.8361 4.42603 18.5444C4.15325 18.2527 4 17.857 4 17.4444V8.88889C4 8.47633 4.15325 8.08067 4.42603 7.78894C4.69881 7.49722 5.06878 7.33333 5.45455 7.33333H8.36364L9.81818 5H14.1818L15.6364 7.33333H18.5455C18.9312 7.33333 19.3012 7.49722 19.574 7.78894C19.8468 8.08067 20 8.47633 20 8.88889V17.4444Z" stroke="#929BAA" stroke-width="1.5" stroke-linecap="round" stroke-linejoin="round"/>
</svg>
